<svg id="Layer_1" xmlns="http://www.w3.org/2000/svg" viewBox="0 0 1357.5 210.8"><style>.st0{fill:#41C0BA;}</style><path class="st0" d="M777.9 58.3c-.9-1.7-2.1-1.7-3 0L756.2 94c-.7 1.4-1.8 2.1-2.9 2.1-1.1 0-2.2-.7-2.9-2.1l-18.7-35.7c-.9-1.7-2.1-1.7-2.9 0l-50.5 96.3c-.4.8-.5 1.6-.2 2.2.4.5 1.1.9 2 .9h15.1c2.3 0 5.1-1.7 6.2-3.8l25.9-49.5c.8-1.4 1.7-2.1 2.9-2.1s2.2.8 2.9 2.1l6.4 12.3c1.3 2.6 1.3 6.5 0 9.1l-15.1 28.9c-.5.8-.5 1.6-.2 2.2.4.5 1.1.9 2 .9h15.1c2.3 0 5.1-1.7 6.2-3.8l2.9-5.5c.7-1.4 1.8-2.1 2.9-2.1 1.1 0 2.2.8 2.9 2.1l2.9 5.5c1.1 2.1 3.9 3.8 6.2 3.8h15.1c1 0 1.7-.3 2-.9.3-.6.2-1.3-.2-2.2l-15.1-28.9c-1.3-2.5-1.3-6.5 0-9.1l6.4-12.3c.8-1.4 1.8-2.1 2.9-2.1 1.2 0 2.2.8 2.9 2.1l25.9 49.5c1 2.1 3.9 3.8 6.2 3.8h15.1c.9 0 1.7-.3 2-.9.3-.6.3-1.3-.2-2.2l-50.4-96.3zM353.4 126.3c0-17.7-11.9-24.3-31.3-29.3-17.5-4.5-22.2-6.7-22.2-14v-.3c0-5.8 5.4-9.5 13.7-9.5 3.8 0 7.7.7 11.8 2.2.8.3 3.5 1.1 6.8 1.1 3.1 0 5.8-.8 7.9-2.3l4.3-3c1.4-1 2.2-2.5 2.1-4-.1-1.7-1.1-3.2-2.7-4.2-8.8-5.1-18.8-7.8-29.8-7.8-20.5 0-34.3 11.9-34.3 29.5v.3c0 20 13.5 25 32.6 29.9 16.3 4.2 20.8 7.1 20.8 13.5v.3c0 6.3-5.8 10.3-15.2 10.3-6.6 0-12.7-1.5-18.8-4.6-2.1-1.1-4.1-1.6-6.2-1.6-3.7 0-6 1.7-6.1 1.8-.1 0-3.2 2.1-6.9 4.6-1.1.8-1.7 1.6-1.7 2.5 0 1.2.9 2.4 1.8 3.1 10.6 7.8 24 12.2 37.5 12.2 22.3 0 36.1-11.6 36.1-30.3v-.4zM487.8 60.1c.4-.9.3-1.8-.1-2.4-.4-.6-1.2-1-2.2-1h-73.7c-1 0-1.8.3-2.2 1-.4.6-.4 1.5-.1 2.4l4.4 11.6c.8 2.1 3.4 3.9 5.6 3.9h13.4c3 0 5.5 2.5 5.5 5.5v70.6c0 2.2 1.7 3.9 3.9 3.9H455c2.2 0 3.9-1.8 3.9-3.9V81c0-3 2.5-5.5 5.5-5.5h13.5c2.3 0 4.8-1.8 5.6-3.9l4.3-11.5zM1351.1 60.1c.4-.9.3-1.8-.1-2.4-.5-.6-1.3-1-2.2-1H1275c-1 0-1.8.3-2.2 1-.4.6-.4 1.5-.1 2.4l4.4 11.6c.8 2.1 3.4 3.9 5.7 3.9h13.3c3.1 0 5.5 2.5 5.5 5.5v70.6c0 2.2 1.8 3.9 3.9 3.9h12.7c2.2 0 3.9-1.8 3.9-3.9V81c0-3 2.5-5.5 5.5-5.5h13.5c2.3 0 4.8-1.8 5.6-3.9l4.4-11.5zM628.9 140.8c.3-.9.3-1.8-.2-2.4-.4-.6-1.2-.9-2.2-.9h-45.1c-3 0-5.5-2.5-5.5-5.5v-11.7c0-3 2.5-5.5 5.5-5.5H612c2.2 0 4.8-1.8 5.6-3.9l4.1-10.9c.3-.9.3-1.8-.1-2.4-.4-.6-1.2-.9-2.2-.9h-38.5c-3 0-5.5-2.5-5.5-5.5V80.3c0-3 2.5-5.5 5.5-5.5H620c2.3 0 4.9-1.8 5.7-3.9l4-10.8c.4-.9.3-1.8-.1-2.4-.4-.6-1.2-1-2.2-1h-76.7c-.6 0-1.2.1-1.7.7-.4.6-.3 1.5.1 2.5l4.5 10.2c1.1 2.5 2 6.7 2 9.3v72.2c0 2.2 1.8 3.9 3.9 3.9h59.7c2.2 0 4.8-1.8 5.6-3.9l4.1-10.8zM1108 105.8c0-29-22.5-50.8-52.4-50.8-29.5 0-52.7 22.4-52.7 51.1v.3c0 29 22.5 50.9 52.4 50.9 29.6 0 52.7-22.5 52.7-51.1v-.4zm-21.6.6c0 18.3-13.3 32-30.9 32-17.5 0-31.2-14.2-31.2-32.3v-.3c0-18.3 13.3-32.1 30.9-32.1 17.5 0 31.2 14.2 31.2 32.3v.4zM944.6 106.3l-.5-.5.5-.5c4.9-5.4 7.6-12.3 7.6-19.5 0-15.8-12.7-28.7-28.4-29.1h-54.6c-1.1 0-1.4.5-1.5.6-.6 1.2.5 3.9 1 4.8l4.7 10.5s.9 1.7.9 5.5v72c0 5 2.8 5.4 3.8 5.4H923.9c15.8-.4 28.6-13.4 28.6-29.4-.1-7.2-2.8-14.3-7.9-19.8zm-50.4-25.5c0-.1 0-2.6 1.7-4.3 1.1-1.1 2.6-1.6 4.4-1.6h1.1l22.6.1c5.7.4 10.1 5.1 10.1 10.9 0 6-4.9 10.9-10.9 10.9l-21.8-.1h-1.1c-1.8 0-3.3-.6-4.4-1.6-1.7-1.8-1.7-4.2-1.7-4.3v-10zm29.7 56.6l-.8.1h-22.4c-1.8 0-3.3-.6-4.4-1.6-1.7-1.7-1.7-4.2-1.7-4.4v-10.9c.2-2.7 1.8-5.6 5.9-5.7H923c6.1 0 11.2 5.1 11.2 11.3.1 5.9-4.5 10.8-10.3 11.2zM1237.2 140.1c.5-.9.5-1.6.1-2.2-.3-.5-1.1-.9-2.1-.9h-40.6c-3 0-5.5-2.5-5.5-5.5V60.7c0-2.2-1.8-3.9-4-3.9H1164c-.6 0-1 .2-1.2.6-.5.6-.5 1.6-.1 2.7l4.1 10.8c1 2.5 1.7 6.7 1.7 9.4v71.3c0 2.2 1.8 3.9 3.9 3.9h52.6c2.3 0 5.1-1.7 6.1-3.8l6.1-11.6zM90.7 207.8c1.7 0 3.5-.5 5.1-1.4 5.9-3.3 75.2-44.4 75.2-44.4 2.7-1.6 5-5.6 5-8.9v-29.2c0-3.2-2.3-4.5-5.1-2.9L60.2 185.8c-2.8 1.6-2.8 4.3 0 5.9l20.1 11.6c2.9 1.6 7.4 4.5 10.4 4.5zM120.7 134c2.8-1.6 2.8-4.3 0-5.9L10 63.2c-2.8-1.6-5-.3-5 2.9v29.2c0 3.2 2.3 7.2 5.1 8.8l75.1 44.4c2.8 1.6 7.4 1.7 10.1.1l25.4-14.6zM72.3 162.2c2.8-1.6 2.8-4.3 0-5.9L10 119.7c-2.8-1.6-5.1-.3-5.1 2.9v29.2c0 3.2 2.3 7.2 5 8.9l26.8 16.1c2.8 1.7 7.3 1.7 10.1.1l25.5-14.7zM7.8 3.2c-.7 0-2.8 0-2.8 5.2V35c0 5 1.9 7.8 4.8 9.6 7.9 4.7 23.3 13.9 27 16.2 5.1 3 10.6-.1 10.6-.1L72.5 46s5.1-2.7-.4-5.9C66.7 36.9 11.6 4.6 11.6 4.6c-.1-.1-2-1.4-3.8-1.4zM176.1 13.1c0-7.7-3.5-7.7-4.7-7.7-3 0-6.3 2.2-6.4 2.2L59.8 69.2s-4.8 2.6-.5 5c4.2 2.5 25.8 14.9 25.8 14.9s5.8 3.2 11.7-.3c5.2-3.1 62.5-36.9 76.3-45.1 1.9-1.1 3-2.8 3-5.4V13.1zM176.1 63.6c0-3.2-2.3-4.5-5.1-2.9l-62.3 36.6c-2.8 1.6-2.8 4.3 0 5.9l25.5 14.7c2.8 1.6 7.3 1.6 10.1-.1l26.8-16.1c2.8-1.7 5-5.6 5-8.9V63.6z"/></svg>